<svg width="32" height="32" viewBox="0 0 32 32" fill="none" xmlns="http://www.w3.org/2000/svg">
<g clip-path="url(#clip0)">
<path d="M-17 24L-6.65685 13.6568C-3.53266 10.5327 1.53266 10.5327 4.65686 13.6569L9.42951 18.4295C12.5198 21.5198 17.5181 21.5582 20.6555 18.5159L25.8445 13.4841C28.9819 10.4418 33.9802 10.4802 37.0705 13.5705L41.7526 18.2526C44.912 21.412 50.0466 21.3712 53.1554 18.1621L57.3446 13.8379C60.4534 10.6288 65.588 10.588 68.7474 13.7474L73.3432 18.3432C76.4673 21.4673 81.5327 21.4673 84.6569 18.3431L89.4295 13.5705C92.5198 10.4802 97.5181 10.4418 100.656 13.4841L105.844 18.5159C108.982 21.5582 113.98 21.5198 117.07 18.4295L127.5 8" stroke="#00A7E1" stroke-width="2"/>
</g>
<defs>
<clipPath id="clip0">
<rect width="32" height="32" fill="white"/>
</clipPath>
</defs>
</svg>
