<svg width="96" height="64" viewBox="0 0 96 64" fill="none" xmlns="http://www.w3.org/2000/svg">
<g clip-path="url(#clip0)">
<path d="M6.00001 63C6.00001 63 -5.99998 30.5 7.00003 5C10.2692 11.5217 13 11 13 11C13 11 11.5 6 13 1C34 4 50.1959 23.301 60 39.4656C60 39.4656 80.5 38.9656 88 63H72H29H23H18H13H6.00001Z" fill="#003460"/>
<path d="M6.00001 63C6.00001 63 -5.99998 30.5 7.00003 5C10.2692 11.5217 13 11 13 11C13 11 11.5 6 13 1C34 4 50.1959 23.301 60 39.4656M72 63C72 63 71.373 61.82 70.1409 59M14 45C14 45 31.8461 53.0652 43.6154 35.6739M60 39.4656C60 39.4656 80.5 38.9656 88 63M60 39.4656C61.3898 41.7571 62.6628 43.9881 63.8168 46.1087M63.8168 46.1087C63.8168 46.1087 70.5 46.6614 74.5 49M63.8168 46.1087C65.0569 48.3873 66.1596 50.5384 67.1226 52.5M67.1226 52.5C67.1226 52.5 76 53 79.5 55.5M67.1226 52.5C68.3621 55.0248 69.3699 57.2355 70.1409 59M70.1409 59C70.1409 59 77.5 58.5 83 62.5M13 63C13 63 13 56.5 16 52C17.5 55.5 22.5 58 26 56C26 61 29 63 29 63M19 55.3958C17.4898 59.3958 18 63 18 63M22 56.5985C21.5 60.8547 23 63 23 63" stroke="#00A7E1" stroke-width="2" stroke-linecap="round" stroke-linejoin="round"/>
<path d="M27.9231 24.9783C27.9231 26.8993 26.3733 28.4565 24.4615 28.4565C22.5498 28.4565 21 26.8993 21 24.9783C21 23.0573 22.5498 21.5 24.4615 21.5C26.3733 21.5 27.9231 23.0573 27.9231 24.9783Z" stroke="#00A7E1" stroke-width="2" stroke-linecap="round" stroke-linejoin="round"/>
</g>
<defs>
<clipPath id="clip0">
<rect width="96" height="64" fill="white"/>
</clipPath>
</defs>
</svg>
